<svg width="112" height="110" viewBox="0 0 112 110" fill="none" xmlns="http://www.w3.org/2000/svg">
<path d="M83.9138 85.822C77.5232 77.5384 67.3978 72.1875 56 72.1875C44.6022 72.1875 34.4768 77.5384 28.0862 85.822M83.9138 85.822C92.5563 78.2666 98 67.2577 98 55C98 32.2183 79.196 13.75 56 13.75C32.804 13.75 14 32.2183 14 55C14 67.2577 19.4437 78.2666 28.0862 85.822M83.9138 85.822C76.4936 92.3089 66.7154 96.25 56 96.25C45.2846 96.25 35.5064 92.3089 28.0862 85.822M70 44.6875C70 52.2814 63.732 58.4375 56 58.4375C48.268 58.4375 42 52.2814 42 44.6875C42 37.0936 48.268 30.9375 56 30.9375C63.732 30.9375 70 37.0936 70 44.6875Z" stroke="#B7E23D" stroke-width="8" stroke-linecap="round" stroke-linejoin="round"/>
</svg>
